<?xml version="1.0" encoding="UTF-8" standalone="no"?>
<!-- Created with Inkscape (http://www.inkscape.org/) -->

<svg
   width="210mm"
   height="297mm"
   viewBox="0 0 210 297"
   version="1.1"
   id="svg518"
   inkscape:version="1.2.2 (b0a8486541, 2022-12-01)"
   sodipodi:docname="logo.svg"
   xmlns:inkscape="http://www.inkscape.org/namespaces/inkscape"
   xmlns:sodipodi="http://sodipodi.sourceforge.net/DTD/sodipodi-0.dtd"
   xmlns="http://www.w3.org/2000/svg"
   xmlns:svg="http://www.w3.org/2000/svg">
  <sodipodi:namedview
     id="namedview520"
     pagecolor="#ffffff"
     bordercolor="#000000"
     borderopacity="0.25"
     inkscape:showpageshadow="2"
     inkscape:pageopacity="0.0"
     inkscape:pagecheckerboard="0"
     inkscape:deskcolor="#d1d1d1"
     inkscape:document-units="mm"
     showgrid="true"
     inkscape:zoom="0.96"
     inkscape:cx="437.5"
     inkscape:cy="555.72917"
     inkscape:window-width="1920"
     inkscape:window-height="1022"
     inkscape:window-x="0"
     inkscape:window-y="30"
     inkscape:window-maximized="1"
     inkscape:current-layer="layer14"
     showguides="false">
    <inkscape:grid
       type="xygrid"
       id="grid1235"
       color="#b1e5ff"
       opacity="0.14901961"
       empcolor="#001520"
       empopacity="0.10588235"
       spacingx="1.3229167"
       spacingy="1.3229167" />
  </sodipodi:namedview>
  <defs
     id="defs515">
    <rect
       x="189.32039"
       y="625.24272"
       width="391.26214"
       height="116.50485"
       id="rect5473" />
  </defs>
  <g
     inkscape:groupmode="layer"
     id="layer9"
     inkscape:label="rootsleft"
     style="fill:#808080"
     sodipodi:insensitive="true">
    <rect
       style="fill:#b3b3b3;stroke-width:0.196493"
       id="rect1014"
       width="0.84005225"
       height="11.129158"
       x="106.69983"
       y="141.10138" />
    <circle
       id="path1339"
       style="fill:#ff0000;stroke:#000000;stroke-width:0.264583"
       cx="45.21846"
       cy="138.72104"
       r="0.020417135" />
    <path
       id="path1345"
       style="fill:#ff0000;stroke-width:0.264583"
       d="m 57.082304,147.62096 c -0.0059,0.004 -0.01175,0.008 -0.01757,0.0119 -0.194577,0.13492 -0.179658,0.21239 -0.22686,0.40979 0.0049,0.0171 0.01,0.0341 0.01499,0.0512 0.04456,-0.11456 0.108006,-0.21607 0.196887,-0.29817 0.008,-0.0615 0.01877,-0.11964 0.03256,-0.17467 z" />
    <rect
       style="fill:#b3b3b3;stroke-width:0.196493"
       id="rect1375"
       width="0.84005225"
       height="11.129158"
       x="103.81716"
       y="140.05116" />
    <rect
       style="fill:#b3b3b3;stroke-width:0.196493"
       id="rect1377"
       width="0.84005225"
       height="11.129158"
       x="109.39404"
       y="141.10138" />
    <path
       id="rect1379"
       style="fill:#b3b3b3;stroke-width:0.196493"
       inkscape:transform-center-x="3.9186568"
       inkscape:transform-center-y="3.2256987"
       d="m 104.15269,150.50804 -8.679573,6.9665 0.526067,0.65474 8.679056,-6.96649 z" />
    <path
       id="rect1381"
       style="fill:#b3b3b3;stroke-width:0.196493"
       inkscape:transform-center-x="3.9186568"
       inkscape:transform-center-y="3.2256987"
       transform="rotate(51.247345)"
       d="m 185.27684,11.475559 -9e-5,2.544471 c 0.0599,0.04547 0.11948,0.09119 0.17862,0.137407 0.086,0.06629 0.17095,0.133676 0.25584,0.201371 0.12044,0.09622 0.24076,0.192639 0.361,0.289106 0.015,0.01207 0.0301,0.02416 0.0451,0.03623 l -2.1e-4,-3.208675 z m 2.2e-4,3.500908 4e-4,0.05399 c 0.003,-0.0051 0.007,-0.01031 0.0101,-0.01508 -0.005,-0.01252 -0.008,-0.02546 -0.0105,-0.03892 z m 0.68476,0.261384 c -0.005,0.01637 -0.009,0.03351 -0.0141,0.05227 0.0106,-0.02024 0.0154,-0.03526 0.0141,-0.05227 z m 0.0309,-0.03683 c 0.0356,0.03204 0.069,0.06583 0.0746,0.08373 0.0565,0.182379 0.0482,0.286189 -0.0454,0.353818 0.0416,0.03726 0.0709,0.07872 0.0593,0.129144 -0.0286,0.03789 -0.0546,0.07799 -0.0812,0.117698 0.0342,-0.005 0.0692,-0.009 0.11026,-0.01023 0.002,-6.8e-5 0.004,3.78e-4 0.007,3.34e-4 l 2.8e-4,-0.621994 c -0.0253,-0.02025 -0.0505,-0.04058 -0.0758,-0.06081 -0.0132,-0.0012 -0.0266,-0.0023 -0.0386,-0.0039 -0.003,0.004 -0.007,0.0083 -0.0104,0.01217 z m -0.24004,1.208817 c -1e-5,3.77e-4 -2.3e-4,8.67e-4 -2.4e-4,0.0011 0.001,6.56e-4 0.002,0.0014 0.004,0.0021 l -0.003,-0.0033 z m 0.34601,0.03454 c 0.007,0.0083 0.0136,0.01465 0.0182,0.01859 l 10e-5,-0.01251 c -0.004,-0.0016 -0.0108,-0.0036 -0.0183,-0.0061 z m -0.82186,1.370656 -3.2e-4,0.09781 c 0.009,-0.0061 0.0188,-0.01212 0.0282,-0.01779 4.7e-4,-0.0021 7e-5,-0.0043 0.002,-0.0065 -0.007,-0.02469 -0.0191,-0.04912 -0.0297,-0.07357 z m 0.82357,-0.834529 c -0.002,0.0074 -0.004,0.01507 -0.007,0.02243 0.001,0.03333 7.3e-4,0.06283 -7.9e-4,0.08684 0.008,0.0024 0.016,0.0048 0.024,0.0073 l 2e-5,-0.113956 c -0.006,-7.69e-4 -0.011,-0.0017 -0.0165,-0.0026 z m -0.82365,2.025898 -2.8e-4,0.07465 c 0.007,-0.01766 0.0153,-0.03458 0.0238,-0.05113 -0.008,-0.0075 -0.016,-0.01546 -0.0235,-0.02352 z m 0,3.535853 -1.8e-4,0.06214 0.0596,9.6e-5 c -0.0245,-0.02047 -0.0443,-0.04105 -0.0594,-0.06224 z" />
    <rect
       style="fill:#b3b3b3;stroke-width:0.196493"
       id="rect1383"
       width="0.84005225"
       height="11.129158"
       x="101.37357"
       y="138.73538" />
    <path
       id="rect1385"
       style="fill:#b3b3b3;stroke-width:0.196493"
       inkscape:transform-center-x="3.9186568"
       inkscape:transform-center-y="3.2256987"
       d="m 101.63824,149.25497 -8.288899,6.65334 c 0.189509,0.008 0.378739,0.0325 0.565857,0.0631 0.01638,0.005 0.03082,0.01 0.04547,0.015 0.06692,-0.0118 0.15718,-0.0197 0.179834,-0.0222 0.01663,-0.002 0.03231,-0.003 0.04754,-0.003 0.129952,-4.5e-4 0.208664,0.0572 0.230994,0.12661 0.0127,0.002 0.02557,0.005 0.03824,0.008 l 7.707024,-6.18619 z m -8.319905,6.67815 -0.0062,0.005 c 0.0056,0.002 0.01221,0.003 0.02067,0.005 -0.0051,-0.004 -0.0099,-0.007 -0.01447,-0.01 z m -0.03256,0.68678 c -0.0021,1.8e-4 -0.0041,3.4e-4 -0.0062,5.1e-4 l 0.0031,0.004 c 9.12e-4,-0.001 0.0022,-0.003 0.0031,-0.004 z m 0.209806,0.24804 c -0.0055,5.8e-4 -0.01066,8e-4 -0.01602,0.001 l 0.0057,0.007 z" />
    <rect
       style="fill:#b3b3b3;stroke-width:0.196493"
       id="rect1387"
       width="0.84005225"
       height="11.129158"
       x="98.679359"
       y="138.23413" />
    <path
       id="rect1389"
       style="fill:#b3b3b3;stroke-width:0.196493"
       inkscape:transform-center-x="3.9186568"
       inkscape:transform-center-y="3.2256987"
       d="m 98.98879,148.75371 -6.315894,5.06998 c 0.05457,0.004 0.108888,0.008 0.163298,0.0134 0.106398,0.013 0.212524,0.0267 0.31936,0.0357 0.08254,0.007 0.165824,0.008 0.248564,0.01 0.08205,0.001 0.16392,0.002 0.24598,0.002 0.05285,1.5e-4 0.105796,4.7e-4 0.158646,5.2e-4 0.04227,4e-5 0.07938,0.005 0.111621,0.014 l 5.593974,-4.48965 z m -5.902999,5.66064 c 0.0012,0.007 0.0023,0.0134 0.0031,0.0207 0.0349,0.0117 0.06628,0.0299 0.09198,0.0579 l 0.08837,-0.0713 c -0.0045,-2.3e-4 -0.009,-3.1e-4 -0.01344,-5.1e-4 -0.05669,-0.002 -0.113354,-0.004 -0.170015,-0.007 z m -0.168465,0.10852 c -0.0069,0.0105 -0.01415,0.0238 -0.02274,0.0403 -0.0083,0.0158 -0.004,0.006 -0.0124,0.0305 7.5e-5,0.0653 -0.0066,0.0835 0.0186,0.11576 0.02141,-0.0205 0.05301,-0.0585 0.04703,-0.10232 -0.0047,-0.0342 -0.01632,-0.0618 -0.03049,-0.0842 z m 0.0036,0.17828 c -0.0069,0.004 -0.01317,0.008 -0.01809,0.0108 5.72e-4,7.1e-4 0.0015,0.001 0.0021,0.002 z m -0.60203,0.19275 c -0.0012,-0.001 -0.0015,-8.8e-4 0,0.001 0.0012,0.002 0.003,0.004 0.0047,0.006 -0.002,-0.003 -0.0036,-0.006 -0.0047,-0.007 z m 0.06511,0.008 c -0.0089,0.0134 -0.01756,0.0269 -0.02635,0.0403 0.01496,-0.006 0.03008,-0.0113 0.04547,-0.016 -0.0061,-0.008 -0.01175,-0.0151 -0.01912,-0.0243 z m -0.04806,0.0491 c -7.34e-4,8.7e-4 -0.0013,0.002 -0.0021,0.003 7.06e-4,-3.3e-4 0.0014,-8.2e-4 0.0021,-0.001 1.2e-5,-5e-4 -1e-5,-1e-4 0,-0.002 z m -0.001,0.0274 c -0.02927,0.0448 -0.05845,0.0894 -0.08888,0.13332 0.02315,-0.0187 0.04915,-0.0404 0.0832,-0.0672 0.0011,-0.022 0.0041,-0.044 0.0057,-0.0661 z m -1.213879,0.092 -0.03204,0.0253 c 0.0036,0.0121 0.0069,0.0245 0.01033,0.0367 0.0072,-0.0206 0.01438,-0.0414 0.0217,-0.062 z m 0.692464,0.0605 c -0.0113,0.0435 -0.03696,0.0827 -0.09147,0.11111 -0.02453,0.0128 -0.04588,0.0212 -0.06511,0.0258 0.0024,0.0193 0.005,0.0395 0.0062,0.0532 -0.02709,0.10778 -0.02724,0.16008 -0.09405,0.1695 -0.0114,0.0187 -0.02499,0.035 -0.04289,0.0475 -0.05338,0.0367 -0.129893,0.0434 -0.191203,0.0207 -0.0024,0.007 -0.0049,0.0143 -0.0072,0.0212 -0.01252,0.0363 -0.04312,0.13624 -0.0801,0.20826 v 5.1e-4 c -0.0014,0.008 -0.0052,0.0139 -0.01033,0.0186 -0.0092,0.016 -0.01871,0.0299 -0.02842,0.0403 -0.0048,0.0766 -0.01943,0.1542 -0.05839,0.20878 -0.0092,0.0326 -0.0191,0.0596 -0.02894,0.077 -0.0049,0.009 -0.0099,0.0171 -0.01499,0.0253 l 0.975651,-0.7829 c -0.09913,-0.0434 -0.167754,-0.11175 -0.240296,-0.20567 -0.0099,-0.0129 -0.01946,-0.0257 -0.02842,-0.0393 z" />
    <rect
       style="fill:#b3b3b3;stroke-width:0.196493"
       id="rect1393"
       width="0.84005225"
       height="11.129158"
       x="156.47432"
       y="-97.359314"
       inkscape:transform-center-x="5.0755061"
       inkscape:transform-center-y="0.017149749"
       transform="rotate(90.513695)" />
    <rect
       style="fill:#b3b3b3;stroke-width:0.196493"
       id="rect1395"
       width="0.84005225"
       height="11.129158"
       x="154.38614"
       y="-95.879005"
       inkscape:transform-center-x="5.0755061"
       inkscape:transform-center-y="0.017149749"
       transform="rotate(90.513695)" />
    <rect
       style="fill:#b3b3b3;stroke-width:0.196493"
       id="rect1397"
       width="0.84005225"
       height="11.129158"
       x="152.21362"
       y="-95.009819"
       inkscape:transform-center-x="5.0755061"
       inkscape:transform-center-y="0.017149749"
       transform="rotate(90.513695)" />
    <path
       id="rect1407"
       style="fill:#b3b3b3;stroke-width:0.196493"
       d="m 105.04268,153.62215 v 0.7369 c 0.19757,-0.0516 0.40061,-0.0781 0.60358,-0.0977 0.058,-0.003 0.14438,-0.0139 0.23307,-0.0145 0.001,-1e-5 0.002,0 0.004,0 v -0.62426 z m 0.84026,1.82573 c -0.0564,0.004 -0.11263,0.007 -0.16898,0.009 -0.004,0.0414 -0.0151,0.0846 -0.0336,0.12919 0.0139,0.004 0.0279,0.008 0.0419,0.0114 0.0545,0.0141 0.10844,0.0269 0.16071,0.0393 z m 0,1.14566 c -0.0206,0.0197 -0.0428,0.0385 -0.0661,0.0563 0.0131,10e-6 0.0237,0.004 0.0284,0.0155 0.0148,0.0376 0.0271,0.0759 0.0377,0.11472 z m -0.84026,0.83148 v 5.1e-4 0.0388 c 0.0416,-0.002 0.0834,-0.004 0.12506,-0.006 -0.0401,-0.0102 -0.0819,-0.0214 -0.12506,-0.0336 z m 0.63717,2.81946 c 0.005,0.0141 0.0129,0.0252 0.0258,0.0315 10e-4,4.5e-4 0.003,0.001 0.004,0.002 0.002,7.1e-4 0.004,0.002 0.006,0.002 0.006,0.001 0.0116,0.002 0.0186,0.002 0.022,-0.0223 0.005,-0.002 -0.0543,-0.0377 z m -0.5519,0.30128 c -0.0211,0.002 -0.0194,0.002 -0.0455,0.005 -0.0132,0.002 -0.0265,0.004 -0.0398,0.007 v 0.008 c 0.0254,-0.003 0.054,-0.003 0.0863,-0.002 -3.1e-4,-0.006 -0.001,-0.0118 -0.001,-0.0181 z m -0.0594,1.98799 c -0.009,0.004 -0.0172,0.007 -0.0258,0.0103 v 0.0486 c 0.009,-0.0149 0.018,-0.0296 0.0269,-0.0444 -4.7e-4,-0.005 -7.3e-4,-0.009 -10e-4,-0.0145 z m -0.0258,0.77618 v 0.11162 c 0.0112,-0.01 0.0224,-0.0195 0.0336,-0.0289 -0.006,-0.0256 -0.0121,-0.0511 -0.0191,-0.076 -0.005,-0.002 -0.01,-0.005 -0.0145,-0.007 z m 0.84026,0.57206 c -0.008,0.009 -0.0164,0.0183 -0.0258,0.0258 0.002,0.0173 4.1e-4,0.0361 -0.003,0.0563 0.009,8.5e-4 0.019,0.002 0.0284,0.003 z m -0.21239,0.80718 c -0.0275,0.0236 -0.0861,0.023 -0.16071,0.0222 -0.0233,0.004 -0.0469,0.007 -0.0703,0.0103 -0.081,0.0115 -0.16212,0.0207 -0.2434,0.0294 h 0.68678 v -0.046 c -0.0707,-0.004 -0.14167,-0.01 -0.21239,-0.016 z" />
    <rect
       style="fill:#b3b3b3;stroke-width:0.196493"
       id="rect2857"
       width="0.84005225"
       height="11.129158"
       x="109.43933"
       y="145.21837" />
    <rect
       style="fill:#b3b3b3;stroke-width:0.196493"
       id="rect2975"
       width="0.84005225"
       height="11.129158"
       x="150.03471"
       y="-81.542213"
       inkscape:transform-center-x="5.0755061"
       inkscape:transform-center-y="0.017149749"
       transform="rotate(90.513695)" />
    <path
       id="path2977"
       style="fill:#b3b3b3;stroke-width:0.196493"
       inkscape:transform-center-x="-3.9186047"
       inkscape:transform-center-y="3.2256987"
       d="m 75.622257,147.06286 -0.163297,0.2036 c 0.04779,-0.022 0.09259,-0.0412 0.12144,-0.0543 0.055,-0.0234 0.111545,-0.0401 0.166914,-0.0491 z m 3.687114,2.95899 c -0.142436,0.0749 -0.253093,0.10598 -0.307475,0.12299 6.27e-4,0.002 0.0015,0.004 0.0021,0.006 0.141594,-0.0121 0.283573,-0.021 0.425297,-0.032 z m 0.801501,0.64389 c -0.198172,0.0127 -0.396437,0.024 -0.594795,0.0362 -0.212513,0.0174 -0.425859,0.0269 -0.637688,0.0517 l 3.924826,3.15019 c 0.0126,-0.003 0.02554,-0.006 0.03824,-0.008 0.02233,-0.0694 0.101044,-0.12705 0.230994,-0.1266 0.0152,0 0.03094,5.8e-4 0.04754,0.003 0.02265,0.002 0.112934,0.0104 0.179834,0.0222 0.0147,-0.005 0.02908,-0.01 0.04547,-0.015 0.18712,-0.0306 0.376347,-0.055 0.565857,-0.063 z m 3.830774,3.07526 c -0.0045,0.003 -0.0095,0.006 -0.01447,0.01 0.0085,-0.002 0.01467,-0.003 0.02067,-0.005 l -0.0057,-0.005 z m 0.03307,0.68678 v 5.2e-4 c 0.001,0.001 0.0017,0.003 0.0026,0.004 l 0.0031,-0.004 c -0.002,-1.7e-4 -0.0037,-3.4e-4 -0.0057,-5.2e-4 z m -0.209806,0.24805 0.0098,0.008 0.0062,-0.007 c -0.0053,-2e-4 -0.01102,-4.8e-4 -0.01602,-0.001 z" />
    <rect
       style="fill:#b3b3b3;stroke-width:0.196493"
       id="rect2979"
       width="0.84005225"
       height="11.129158"
       x="154.37714"
       y="-86.251755"
       inkscape:transform-center-x="5.0755061"
       inkscape:transform-center-y="0.017149749"
       transform="rotate(90.513695)" />
    <rect
       style="fill:#b3b3b3;stroke-width:0.196493"
       id="rect2981"
       width="0.84005225"
       height="11.129158"
       x="156.49042"
       y="-91.241264"
       inkscape:transform-center-x="5.0755061"
       inkscape:transform-center-y="0.017149749"
       transform="rotate(90.513695)" />
  </g>
  <g
     inkscape:groupmode="layer"
     id="layer12"
     inkscape:label="rootsright"
     style="display:inline"
     sodipodi:insensitive="true">
    <rect
       style="fill:#b3b3b3;stroke-width:0.196493"
       id="rect3104"
       width="0.84005225"
       height="11.129158"
       x="-113.07072"
       y="141.10138"
       transform="scale(-1,1)" />
    <circle
       id="circle3108"
       style="fill:#ff0000;stroke:#000000;stroke-width:0.264583"
       cx="-174.55208"
       cy="138.72104"
       r="0.020417135"
       transform="scale(-1,1)" />
    <path
       id="path3114"
       style="fill:#ff0000;stroke-width:0.264583"
       d="m 162.68824,147.62096 c 0.006,0.004 0.0117,0.008 0.0176,0.0119 0.19457,0.13492 0.17966,0.21239 0.22686,0.40979 -0.005,0.0171 -0.01,0.0341 -0.015,0.0512 -0.0446,-0.11456 -0.10801,-0.21607 -0.19689,-0.29817 -0.008,-0.0615 -0.0188,-0.11964 -0.0326,-0.17467 z" />
    <rect
       style="fill:#b3b3b3;stroke-width:0.196493"
       id="rect3118"
       width="0.84005225"
       height="11.129158"
       x="-115.95338"
       y="140.05116"
       transform="scale(-1,1)" />
    <rect
       style="fill:#b3b3b3;stroke-width:0.196493"
       id="rect3120"
       width="0.84005225"
       height="11.129158"
       x="-110.3765"
       y="141.10138"
       transform="scale(-1,1)" />
    <path
       id="path3122"
       style="fill:#b3b3b3;stroke-width:0.196493"
       inkscape:transform-center-x="-3.9186571"
       inkscape:transform-center-y="3.2256987"
       d="m 115.61785,150.50804 8.67957,6.9665 -0.52606,0.65474 -8.67906,-6.96649 z" />
    <path
       id="path3124"
       style="fill:#b3b3b3;stroke-width:0.196493"
       inkscape:transform-center-x="-3.9186359"
       inkscape:transform-center-y="3.225678"
       d="m 112.744,151.6724 1.98438,1.59266 c -0.002,0.0752 -0.004,0.15026 -0.005,0.22531 -0.002,0.10856 -0.003,0.21699 -0.003,0.32557 -3.5e-4,0.15415 -4.8e-4,0.30834 -5.1e-4,0.46249 2e-5,0.0193 0,0.0386 2e-5,0.0579 l -2.50217,-2.00866 z m 2.73007,2.19159 0.0418,0.0341 c -0.006,-8.5e-4 -0.0124,-9.9e-4 -0.0181,-0.002 -0.007,-0.0117 -0.0148,-0.0222 -0.0238,-0.0325 z m -0.22479,0.69763 c 0.0159,0.006 0.0318,0.014 0.0496,0.0217 -0.0224,-0.004 -0.0371,-0.0101 -0.0496,-0.0217 z m -0.0481,0.001 c 0.003,0.0478 0.008,0.095 0.0186,0.11059 0.10686,0.15822 0.19301,0.21673 0.30434,0.18607 0.003,0.0558 0.017,0.10456 0.0636,0.12708 0.0474,0.001 0.095,0.006 0.14262,0.0103 -0.0253,0.0235 -0.0503,0.0483 -0.077,0.0796 -0.001,0.002 -0.002,0.003 -0.004,0.006 l -0.48524,-0.38912 c 4e-5,-0.0324 -4e-5,-0.0648 2e-5,-0.0972 0.007,-0.011 0.0149,-0.0222 0.0211,-0.0325 0.005,1.6e-4 0.0109,-2.7e-4 0.016,-5e-4 z m 1.09296,0.56947 c 3e-4,2.3e-4 8.2e-4,3.6e-4 0.001,5e-4 -1.2e-4,0.001 -1.6e-4,0.002 -8.7e-4,0.004 l -7e-4,-0.004 z m -0.18966,0.29146 c 0.002,0.0106 0.003,0.0198 0.003,0.0258 l -0.01,-0.008 c 10e-4,-0.004 0.004,-0.0107 0.007,-0.0181 z m 1.58337,0.21704 0.0765,0.061 c -0.0104,0.003 -0.0212,0.007 -0.0315,0.0109 -0.002,-9.4e-4 -0.003,-0.003 -0.006,-0.002 -0.0149,-0.0209 -0.0263,-0.0456 -0.0388,-0.0692 z m -1.16634,0.11989 c 0.007,0.003 0.0143,0.006 0.0219,0.009 0.0254,0.0216 0.0485,0.0399 0.0682,0.0537 -0.003,0.008 -0.006,0.0155 -0.009,0.0233 l -0.0889,-0.0713 c 0.003,-0.005 0.006,-0.01 0.008,-0.0145 z m 2.09548,0.6258 0.0584,0.0465 c -0.0182,-0.006 -0.0365,-0.01 -0.0548,-0.0135 -8.4e-4,-0.0109 -0.002,-0.0221 -0.004,-0.0331 z m 2.75746,2.2133 0.0486,0.0388 -0.0372,0.0465 c -6.3e-4,-0.0319 -0.004,-0.0602 -0.0114,-0.0853 z" />
    <rect
       style="fill:#b3b3b3;stroke-width:0.196493"
       id="rect3126"
       width="0.84005225"
       height="11.129158"
       x="-118.39697"
       y="138.73538"
       transform="scale(-1,1)" />
    <path
       id="path3128"
       style="fill:#b3b3b3;stroke-width:0.196493"
       inkscape:transform-center-x="-3.9186571"
       inkscape:transform-center-y="3.2256987"
       d="m 118.1323,149.25497 8.2889,6.65334 c -0.18951,0.008 -0.37874,0.0325 -0.56586,0.0631 -0.0164,0.005 -0.0308,0.01 -0.0455,0.015 -0.0669,-0.0118 -0.15718,-0.0197 -0.17983,-0.0222 -0.0166,-0.002 -0.0323,-0.003 -0.0475,-0.003 -0.12995,-4.5e-4 -0.20866,0.0572 -0.23099,0.12661 -0.0127,0.002 -0.0256,0.005 -0.0382,0.008 l -7.70703,-6.18619 z m 8.31991,6.67815 0.006,0.005 c -0.006,0.002 -0.0122,0.003 -0.0207,0.005 0.005,-0.004 0.01,-0.007 0.0145,-0.01 z m 0.0326,0.68678 c 0.002,1.8e-4 0.004,3.4e-4 0.006,5.1e-4 l -0.003,0.004 c -9.2e-4,-0.001 -0.002,-0.003 -0.003,-0.004 z m -0.20981,0.24804 c 0.005,5.8e-4 0.0107,8e-4 0.016,0.001 l -0.006,0.007 z" />
    <rect
       style="fill:#b3b3b3;stroke-width:0.196493"
       id="rect3130"
       width="0.84005225"
       height="11.129158"
       x="-121.09119"
       y="138.23413"
       transform="scale(-1,1)" />
    <path
       id="path3132"
       style="fill:#b3b3b3;stroke-width:0.196493"
       inkscape:transform-center-x="-3.9186571"
       inkscape:transform-center-y="3.2256987"
       d="m 120.78175,148.75371 6.3159,5.06998 c -0.0546,0.004 -0.10889,0.008 -0.1633,0.0134 -0.1064,0.013 -0.21253,0.0267 -0.31936,0.0357 -0.0825,0.007 -0.16583,0.008 -0.24857,0.01 -0.082,0.001 -0.16392,0.002 -0.24598,0.002 -0.0529,1.5e-4 -0.10579,4.7e-4 -0.15864,5.2e-4 -0.0423,4e-5 -0.0794,0.005 -0.11162,0.014 l -5.59397,-4.48965 z m 5.903,5.66064 c -10e-4,0.007 -0.002,0.0134 -0.003,0.0207 -0.0349,0.0117 -0.0663,0.0299 -0.092,0.0579 l -0.0884,-0.0713 c 0.004,-2.3e-4 0.009,-3.1e-4 0.0134,-5.1e-4 0.0567,-0.002 0.11335,-0.004 0.17002,-0.007 z m 0.16847,0.10852 c 0.007,0.0105 0.0142,0.0238 0.0227,0.0403 0.008,0.0158 0.004,0.006 0.0124,0.0305 -8e-5,0.0653 0.007,0.0835 -0.0186,0.11576 -0.0214,-0.0205 -0.053,-0.0585 -0.047,-0.10232 0.005,-0.0342 0.0163,-0.0618 0.0305,-0.0842 z m -0.004,0.17828 c 0.007,0.004 0.0132,0.008 0.0181,0.0108 -5.8e-4,7.1e-4 -0.002,0.001 -0.002,0.002 z m 0.60203,0.19275 c 0.001,-0.001 0.001,-8.8e-4 0,0.001 -0.001,0.002 -0.003,0.004 -0.005,0.006 0.002,-0.003 0.004,-0.006 0.005,-0.007 z m -0.0651,0.008 c 0.009,0.0134 0.0176,0.0269 0.0263,0.0403 -0.015,-0.006 -0.0301,-0.0113 -0.0455,-0.016 0.006,-0.008 0.0118,-0.0151 0.0191,-0.0243 z m 0.0481,0.0491 c 7.3e-4,8.7e-4 10e-4,0.002 0.002,0.003 -7.1e-4,-3.3e-4 -0.001,-8.2e-4 -0.002,-0.001 -2e-5,-5e-4 10e-6,-1e-4 0,-0.002 z m 10e-4,0.0274 c 0.0293,0.0448 0.0585,0.0894 0.0889,0.13332 -0.0232,-0.0187 -0.0491,-0.0404 -0.0832,-0.0672 -0.001,-0.022 -0.004,-0.044 -0.006,-0.0661 z m 1.21387,0.092 0.032,0.0253 c -0.004,0.0121 -0.007,0.0245 -0.0103,0.0367 -0.007,-0.0206 -0.0144,-0.0414 -0.0217,-0.062 z m -0.69246,0.0605 c 0.0113,0.0435 0.037,0.0827 0.0915,0.11111 0.0245,0.0128 0.0459,0.0212 0.0651,0.0258 -0.002,0.0193 -0.005,0.0395 -0.006,0.0532 0.0271,0.10778 0.0272,0.16008 0.094,0.1695 0.0114,0.0187 0.025,0.035 0.0429,0.0475 0.0534,0.0367 0.12989,0.0434 0.1912,0.0207 0.002,0.007 0.005,0.0143 0.007,0.0212 0.0125,0.0363 0.0431,0.13624 0.0801,0.20826 v 5.1e-4 c 0.001,0.008 0.005,0.0139 0.0103,0.0186 0.009,0.016 0.0187,0.0299 0.0284,0.0403 0.005,0.0766 0.0194,0.1542 0.0584,0.20878 0.009,0.0326 0.0191,0.0596 0.0289,0.077 0.005,0.009 0.01,0.0171 0.015,0.0253 l -0.97565,-0.7829 c 0.0991,-0.0434 0.16776,-0.11175 0.2403,-0.20567 0.01,-0.0129 0.0195,-0.0257 0.0284,-0.0393 z" />
    <rect
       style="fill:#b3b3b3;stroke-width:0.196493"
       id="rect3134"
       width="0.84005225"
       height="11.129158"
       x="158.44467"
       y="122.40239"
       inkscape:transform-center-x="-5.0755049"
       inkscape:transform-center-y="0.017150238"
       transform="matrix(0.00896555,0.99995981,0.99995981,-0.00896555,0,0)" />
    <rect
       style="fill:#b3b3b3;stroke-width:0.196493"
       id="rect3136"
       width="0.84005225"
       height="11.129158"
       x="156.35649"
       y="123.88271"
       inkscape:transform-center-x="-5.0755049"
       inkscape:transform-center-y="0.017150234"
       transform="matrix(0.00896555,0.99995981,0.99995981,-0.00896555,0,0)" />
    <rect
       style="fill:#b3b3b3;stroke-width:0.196493"
       id="rect3138"
       width="0.84005225"
       height="11.129158"
       x="154.18398"
       y="124.75189"
       inkscape:transform-center-x="-5.0755049"
       inkscape:transform-center-y="0.01715023"
       transform="matrix(0.00896555,0.99995981,0.99995981,-0.00896555,0,0)" />
    <path
       id="path3140"
       style="fill:#b3b3b3;stroke-width:0.196493"
       d="m 114.72786,153.62215 v 0.7369 c -0.19757,-0.0516 -0.40061,-0.0781 -0.60358,-0.0977 -0.058,-0.003 -0.14438,-0.0139 -0.23307,-0.0145 -0.001,-1e-5 -0.002,0 -0.004,0 v -0.62426 z m -0.84026,1.82573 c 0.0564,0.004 0.11263,0.007 0.16898,0.009 0.004,0.0414 0.0151,0.0846 0.0336,0.12919 -0.0139,0.004 -0.0279,0.008 -0.0419,0.0114 -0.0545,0.0141 -0.10844,0.0269 -0.16071,0.0393 z m 0,1.14566 c 0.0206,0.0197 0.0428,0.0385 0.0661,0.0563 -0.0131,10e-6 -0.0237,0.004 -0.0284,0.0155 -0.0148,0.0376 -0.0271,0.0759 -0.0377,0.11472 z m 0.84026,0.83148 v 5.1e-4 0.0388 c -0.0416,-0.002 -0.0834,-0.004 -0.12506,-0.006 0.0401,-0.0102 0.0819,-0.0214 0.12506,-0.0336 z m -0.63717,2.81946 c -0.005,0.0141 -0.0129,0.0252 -0.0258,0.0315 -0.001,4.5e-4 -0.003,0.001 -0.004,0.002 -0.002,7.1e-4 -0.004,0.002 -0.006,0.002 -0.006,0.001 -0.0116,0.002 -0.0186,0.002 -0.022,-0.0223 -0.005,-0.002 0.0543,-0.0377 z m 0.5519,0.30128 c 0.0211,0.002 0.0194,0.002 0.0455,0.005 0.0132,0.002 0.0265,0.004 0.0398,0.007 v 0.008 c -0.0254,-0.003 -0.054,-0.003 -0.0863,-0.002 3.1e-4,-0.006 0.001,-0.0118 0.001,-0.0181 z m 0.0594,1.98799 c 0.009,0.004 0.0172,0.007 0.0258,0.0103 v 0.0486 c -0.009,-0.0149 -0.018,-0.0296 -0.0269,-0.0444 4.7e-4,-0.005 7.3e-4,-0.009 0.001,-0.0145 z m 0.0258,0.77618 v 0.11162 c -0.0112,-0.01 -0.0224,-0.0195 -0.0336,-0.0289 0.006,-0.0256 0.0121,-0.0511 0.0191,-0.076 0.005,-0.002 0.01,-0.005 0.0145,-0.007 z m -0.84026,0.57206 c 0.008,0.009 0.0164,0.0183 0.0258,0.0258 -0.002,0.0173 -4.1e-4,0.0361 0.003,0.0563 -0.009,8.5e-4 -0.019,0.002 -0.0284,0.003 z m 0.21239,0.80718 c 0.0275,0.0236 0.0861,0.023 0.16071,0.0222 0.0233,0.004 0.0469,0.007 0.0703,0.0103 0.081,0.0115 0.16212,0.0207 0.2434,0.0294 h -0.68678 v -0.046 c 0.0707,-0.004 0.14167,-0.01 0.21239,-0.016 z" />
    <rect
       style="fill:#b3b3b3;stroke-width:0.196493"
       id="rect3142"
       width="0.84005225"
       height="11.129158"
       x="-110.33121"
       y="145.21837"
       transform="scale(-1,1)" />
    <rect
       style="fill:#b3b3b3;stroke-width:0.196493"
       id="rect3144"
       width="0.84005225"
       height="11.129158"
       x="152.00507"
       y="138.2195"
       inkscape:transform-center-x="-5.0755087"
       inkscape:transform-center-y="0.017150179"
       transform="matrix(0.00896555,0.99995981,0.99995981,-0.00896555,0,0)" />
    <path
       id="path3146"
       style="fill:#b3b3b3;stroke-width:0.196493"
       inkscape:transform-center-x="3.9186044"
       inkscape:transform-center-y="3.2256987"
       d="m 144.14828,147.06286 0.1633,0.2036 c -0.0478,-0.022 -0.0926,-0.0412 -0.12144,-0.0543 -0.055,-0.0234 -0.11154,-0.0401 -0.16691,-0.0491 z m -3.68711,2.95899 c 0.14244,0.0749 0.25309,0.10598 0.30748,0.12299 -6.3e-4,0.002 -0.001,0.004 -0.002,0.006 -0.1416,-0.0121 -0.28358,-0.021 -0.4253,-0.032 z m -0.8015,0.64389 c 0.19817,0.0127 0.39644,0.024 0.59479,0.0362 0.21252,0.0174 0.42586,0.0269 0.63769,0.0517 l -3.92482,3.15019 c -0.0126,-0.003 -0.0255,-0.006 -0.0382,-0.008 -0.0223,-0.0694 -0.10105,-0.12705 -0.231,-0.1266 -0.0152,0 -0.0309,5.8e-4 -0.0475,0.003 -0.0226,0.002 -0.11293,0.0104 -0.17983,0.0222 -0.0147,-0.005 -0.0291,-0.01 -0.0455,-0.015 -0.18712,-0.0306 -0.37635,-0.055 -0.56586,-0.063 z m -3.83077,3.07526 c 0.005,0.003 0.01,0.006 0.0145,0.01 -0.008,-0.002 -0.0147,-0.003 -0.0207,-0.005 l 0.006,-0.005 z m -0.0331,0.68678 v 5.2e-4 c -0.001,0.001 -0.002,0.003 -0.003,0.004 l -0.003,-0.004 c 0.002,-1.7e-4 0.004,-3.4e-4 0.006,-5.2e-4 z m 0.2098,0.24805 -0.01,0.008 -0.006,-0.007 c 0.005,-2e-4 0.011,-4.8e-4 0.016,-0.001 z" />
    <rect
       style="fill:#b3b3b3;stroke-width:0.196493"
       id="rect3148"
       width="0.84005225"
       height="11.129158"
       x="156.34749"
       y="133.50996"
       inkscape:transform-center-x="-5.0755087"
       inkscape:transform-center-y="0.01715019"
       transform="matrix(0.00896555,0.99995981,0.99995981,-0.00896555,0,0)" />
    <rect
       style="fill:#b3b3b3;stroke-width:0.196493"
       id="rect3150"
       width="0.84005225"
       height="11.129158"
       x="158.46077"
       y="128.52045"
       inkscape:transform-center-x="-5.0755049"
       inkscape:transform-center-y="0.017150232"
       transform="matrix(0.00896555,0.99995981,0.99995981,-0.00896555,0,0)" />
  </g>
  <g
     inkscape:groupmode="layer"
     id="layer10"
     inkscape:label="nodesleft"
     sodipodi:insensitive="true">
    <ellipse
       style="fill:none;stroke:#e9a066;stroke-width:0.682;stroke-dasharray:none;stroke-opacity:1;fill-opacity:1"
       id="path1833"
       cx="109.70677"
       cy="157.52832"
       rx="1.3411455"
       ry="1.332832" />
    <ellipse
       style="fill:none;stroke:#e9a066;stroke-width:0.682;stroke-dasharray:none;stroke-opacity:1;fill-opacity:1"
       id="ellipse2892"
       cx="105.29571"
       cy="155.82579"
       rx="1.3411455"
       ry="1.332832" />
    <ellipse
       style="fill:none;stroke:#e9a066;stroke-width:0.682;stroke-dasharray:none;stroke-opacity:1;fill-opacity:1"
       id="ellipse2911"
       cx="77.140709"
       cy="157.92885"
       rx="1.3411455"
       ry="1.332832" />
    <ellipse
       style="fill:none;stroke:#e9a066;stroke-width:0.682;stroke-dasharray:none;stroke-opacity:1;fill-opacity:1"
       id="ellipse2915"
       cx="72.325462"
       cy="155.07414"
       rx="1.3411455"
       ry="1.332832" />
    <ellipse
       style="fill:none;stroke:#e9a066;stroke-width:0.682;stroke-dasharray:none;stroke-opacity:1;fill-opacity:1"
       id="ellipse2917"
       cx="68.011543"
       cy="151.24701"
       rx="1.3411455"
       ry="1.332832" />
  </g>
  <g
     inkscape:groupmode="layer"
     id="layer11"
     inkscape:label="nodesright"
     sodipodi:insensitive="true">
    <ellipse
       style="display:inline;fill:none;stroke:#e9a066;stroke-width:0.682;stroke-dasharray:none;stroke-opacity:1"
       id="ellipse3178"
       cx="-114.57446"
       cy="155.82579"
       rx="1.3411455"
       ry="1.332832"
       transform="scale(-1,1)" />
    <ellipse
       style="display:inline;fill:none;stroke:#e9a066;stroke-width:0.682;stroke-dasharray:none;stroke-opacity:1"
       id="ellipse3180"
       cx="-142.72945"
       cy="157.92885"
       rx="1.3411455"
       ry="1.332832"
       transform="scale(-1,1)" />
    <ellipse
       style="display:inline;fill:none;stroke:#e9a066;stroke-width:0.682;stroke-dasharray:none;stroke-opacity:1"
       id="ellipse3182"
       cx="-147.54469"
       cy="155.07414"
       rx="1.3411455"
       ry="1.332832"
       transform="scale(-1,1)" />
    <ellipse
       style="display:inline;fill:none;stroke:#e9a066;stroke-width:0.682;stroke-dasharray:none;stroke-opacity:1"
       id="ellipse3184"
       cx="-151.85861"
       cy="151.24701"
       rx="1.3411455"
       ry="1.332832"
       transform="scale(-1,1)" />
  </g>
  <g
     inkscape:groupmode="layer"
     id="layer6"
     inkscape:label="lily"
     sodipodi:insensitive="true"
     style="display:none">
    <path
       id="path790"
       style="fill:#ffb380;stroke-width:0.27099"
       d="m 109.67279,138.70976 c 10e-6,5.97884 -9.965382,10.82564 -22.258316,10.82564 -12.292933,0 -20.025971,-7.43001 -23.877103,-10.61337 -3.34402,-2.76418 11.584179,-11.0379 23.877103,-11.0379 12.292924,0 22.258306,4.84679 22.258316,10.82563 z"
       sodipodi:nodetypes="sssss" />
    <path
       id="path848"
       style="fill:#ffb380;stroke-width:0.27099"
       d="m 110.00576,138.70976 c -10e-6,5.97884 9.96538,10.82564 22.25832,10.82564 12.29293,0 20.02597,-7.43001 23.8771,-10.61337 3.34402,-2.76418 -11.58418,-11.0379 -23.8771,-11.0379 -12.29293,0 -22.25831,4.84679 -22.25832,10.82563 z"
       sodipodi:nodetypes="sssss" />
  </g>
  <g
     inkscape:label="bottomleaves"
     inkscape:groupmode="layer"
     id="layer1"
     sodipodi:insensitive="true"
     style="display:none">
    <path
       id="path633"
       style="fill:#552200;stroke-width:0.264583"
       d="m 133.7727,121.74165 c -9.98168,17.16424 -22.17462,21.90538 -31.73577,16.3452 -9.561145,-5.56019 -11.61692,-19.05566 -1.63525,-36.2199 9.98168,-17.164239 39.10225,-26.280001 39.19855,-25.734965 0.3618,2.047833 4.15414,28.445425 -5.82753,45.609665 z"
       sodipodi:nodetypes="sssss"
       inkscape:transform-center-x="-14.816569"
       inkscape:transform-center-y="-29.376089" />
    <path
       id="path626"
       style="fill:#552200;stroke-width:0.264583"
       d="m 129.40024,110.57737 c 0,19.85561 -8.15679,30.08365 -19.21713,30.08365 -11.060338,0 -19.621816,-10.63274 -19.621816,-30.48834 -10e-7,-19.855608 19.839176,-41.924183 19.621816,-41.415165 -0.81386,1.905918 19.21713,21.964249 19.21713,41.819855 z"
       sodipodi:nodetypes="sssss" />
    <path
       id="path655"
       style="fill:#552200;stroke-width:0.264583"
       d="m 117.04588,103.21027 c 9.08034,17.65766 6.50395,30.48373 -3.33205,35.54183 -9.83599,5.05809 -22.312289,-0.48231 -31.392617,-18.13996 -9.080332,-17.65766 -1.529652,-43.7256 -1.490168,-45.804054 0.03936,-2.072038 27.134505,10.744531 36.214835,28.402184 z"
       sodipodi:nodetypes="sssss"
       inkscape:transform-center-x="9.5317291"
       inkscape:transform-center-y="-24.755331" />
    <path
       id="path659"
       style="fill:#552200;stroke-width:0.264583"
       d="m 108.97755,100.94273 c 16.55043,10.96944 20.5696,23.41902 14.4592,32.63826 -6.1104,9.21921 -19.70308,10.48138 -36.253503,-0.48805 C 70.632819,122.12349 64.483485,95.689877 63.502364,93.857139 c -0.978095,-1.82708 28.924765,-3.88385 45.475186,7.085591 z"
       sodipodi:nodetypes="sssss"
       inkscape:transform-center-x="22.051831"
       inkscape:transform-center-y="-13.236801" />
    <path
       id="path733"
       style="fill:#552200;stroke-width:0.264583"
       d="m 109.16285,100.94273 c -16.550432,10.96944 -20.569602,23.41902 -14.459202,32.63826 6.110402,9.21921 19.703082,10.48138 36.253512,-0.48805 16.55042,-10.96945 22.69976,-37.403063 23.68088,-39.235801 0.97809,-1.82708 -28.92477,-3.88385 -45.47519,7.085591 z"
       sodipodi:nodetypes="sssss"
       inkscape:transform-center-x="-22.051831"
       inkscape:transform-center-y="-13.236801" />
  </g>
  <g
     inkscape:groupmode="layer"
     id="layer3"
     inkscape:label="frontont leaves"
     style="display:none"
     sodipodi:insensitive="true">
    <path
       id="path727"
       style="fill:#ffeeaa;stroke-width:0.225673"
       d="m 131.14771,128.31561 c -10.14757,13.30509 -20.81769,15.68414 -28.1981,9.61663 -7.380387,-6.0675 -7.659288,-17.88911 2.48826,-31.19419 10.14753,-13.305073 34.63173,-17.501926 34.25926,-16.987765 -1.03097,1.423129 1.5981,25.260235 -8.54942,38.565325 z"
       sodipodi:nodetypes="sssss"
       inkscape:transform-center-y="-16.778886"
       inkscape:transform-center-x="-11.167362" />
    <path
       id="path730"
       style="fill:#ffeeaa;stroke-width:0.223608"
       d="m 113.86305,108.07972 c 9.98566,13.13959 9.54878,24.14921 1.98154,29.90008 -7.56723,5.75084 -18.772188,3.16598 -28.757813,-9.97346 -9.985653,-13.13958 -7.794245,-38.097716 -7.40343,-37.609181 1.081758,1.352193 24.194073,4.542993 34.179703,17.682561 z"
       sodipodi:nodetypes="sssss"
       inkscape:transform-center-x="16.854401"
       inkscape:transform-center-y="-18.677446" />
    <path
       id="path724"
       style="fill:#ffb380;stroke-width:0.223608"
       d="m 125.96031,116.26342 c 0,16.5034 -7.00938,25.00464 -16.51389,25.00464 -9.504492,0 -16.861642,-8.83762 -16.861642,-25.34101 -10e-7,-16.503387 16.846082,-35.048478 16.861642,-34.423049 0.0431,1.731118 16.51389,18.256036 16.51389,34.759419 z"
       sodipodi:nodetypes="sssss" />
  </g>
  <g
     inkscape:groupmode="layer"
     id="layer14"
     inkscape:label="flower"
     style="display:inline"
     transform="translate(-0.55121528,0.82682292)">
    <g
       inkscape:label="bottomleaves copy"
       id="g5708"
       style="display:inline"
       transform="translate(0.77063107,8.4769417)">
      <path
         id="path5698"
         style="fill:#7a804d;fill-opacity:1;stroke-width:0.264583"
         d="m 133.7727,121.74165 c -9.98168,17.16424 -22.17462,21.90538 -31.73577,16.3452 -9.561145,-5.56019 -11.61692,-19.05566 -1.63525,-36.2199 9.98168,-17.164239 39.10225,-26.280001 39.19855,-25.734965 0.3618,2.047833 4.15414,28.445425 -5.82753,45.609665 z"
         sodipodi:nodetypes="sssss"
         inkscape:transform-center-x="-14.816569"
         inkscape:transform-center-y="-29.376089" />
      <path
         id="path5700"
         style="fill:#7a804d;fill-opacity:1;stroke-width:0.264583"
         d="m 129.40024,110.57737 c 0,19.85561 -8.15679,30.08365 -19.21713,30.08365 -11.060338,0 -19.621816,-10.63274 -19.621816,-30.48834 -10e-7,-19.855608 19.839176,-41.924183 19.621816,-41.415165 -0.81386,1.905918 19.21713,21.964249 19.21713,41.819855 z"
         sodipodi:nodetypes="sssss" />
      <path
         id="path5702"
         style="fill:#7a804d;fill-opacity:1;stroke-width:0.264583"
         d="m 117.04588,103.21027 c 9.08034,17.65766 6.50395,30.48373 -3.33205,35.54183 -9.83599,5.05809 -22.312289,-0.48231 -31.392617,-18.13996 -9.080332,-17.65766 -1.529652,-43.7256 -1.490168,-45.804054 0.03936,-2.072038 27.134505,10.744531 36.214835,28.402184 z"
         sodipodi:nodetypes="sssss"
         inkscape:transform-center-x="9.5317291"
         inkscape:transform-center-y="-24.755331" />
      <path
         id="path5704"
         style="fill:#7a804d;fill-opacity:1;stroke-width:0.264583"
         d="m 108.97755,100.94273 c 16.55043,10.96944 20.5696,23.41902 14.4592,32.63826 -6.1104,9.21921 -19.70308,10.48138 -36.253503,-0.48805 C 70.632819,122.12349 64.483485,95.689877 63.502364,93.857139 c -0.978095,-1.82708 28.924765,-3.88385 45.475186,7.085591 z"
         sodipodi:nodetypes="sssss"
         inkscape:transform-center-x="22.051831"
         inkscape:transform-center-y="-13.236801" />
      <path
         id="path5706"
         style="fill:#7a804d;fill-opacity:1;stroke-width:0.264583"
         d="m 109.16285,100.94273 c -16.550432,10.96944 -20.569602,23.41902 -14.459202,32.63826 6.110402,9.21921 19.703082,10.48138 36.253512,-0.48805 16.55042,-10.96945 22.69976,-37.403063 23.68088,-39.235801 0.97809,-1.82708 -28.92477,-3.88385 -45.47519,7.085591 z"
         sodipodi:nodetypes="sssss"
         inkscape:transform-center-x="-22.051831"
         inkscape:transform-center-y="-13.236801" />
    </g>
    <g
       id="g5692"
       inkscape:label="frontont leaves copy"
       style="display:inline"
       transform="translate(0,8.7338188)">
      <path
         id="path5686"
         style="fill:#f5e6aa;stroke-width:0.225673"
         d="m 131.14771,128.31561 c -10.14757,13.30509 -20.81769,15.68414 -28.1981,9.61663 -7.380387,-6.0675 -7.659288,-17.88911 2.48826,-31.19419 10.14753,-13.305073 34.63173,-17.501926 34.25926,-16.987765 -1.03097,1.423129 1.5981,25.260235 -8.54942,38.565325 z"
         sodipodi:nodetypes="sssss"
         inkscape:transform-center-y="-16.778886"
         inkscape:transform-center-x="-11.167362" />
      <path
         id="path5688"
         style="fill:#f5e6aa;stroke-width:0.223608"
         d="m 113.86305,108.07972 c 9.98566,13.13959 9.54878,24.14921 1.98154,29.90008 -7.56723,5.75084 -18.772188,3.16598 -28.757813,-9.97346 -9.985653,-13.13958 -7.794245,-38.097716 -7.40343,-37.609181 1.081758,1.352193 24.194073,4.542993 34.179703,17.682561 z"
         sodipodi:nodetypes="sssss"
         inkscape:transform-center-x="16.854401"
         inkscape:transform-center-y="-18.677446" />
      <path
         id="path5690"
         style="fill:#e9a066;stroke-width:0.223608"
         d="m 125.96031,116.26342 c 0,16.5034 -7.00938,25.00464 -16.51389,25.00464 -9.504492,0 -16.861642,-8.83762 -16.861642,-25.34101 -10e-7,-16.503387 16.846082,-35.048478 16.861642,-34.423049 0.0431,1.731118 16.51389,18.256036 16.51389,34.759419 z"
         sodipodi:nodetypes="sssss" />
    </g>
  </g>
</svg>
